<?xml version="1.0" encoding="UTF-8" standalone="no"?>
<!DOCTYPE score-partwise PUBLIC "-//Recordare//DTD MusicXML 2.0 Partwise//EN" "http://www.musicxml.org/dtds/partwise.dtd">
<score-partwise version="2.0">
 <work>
  <work-title>In Dorian Mode, Mikrokosmos, Sz. 107</work-title>
 </work>
 <identification>
  <creator type="composer">Béla Bártok</creator>
  <creator type="poet"></creator>
  <rights></rights>
  <encoding>
   <encoding-description>MusicXML 2.0</encoding-description>
  </encoding>
  <source>Mikrokosmos expired copy-right edition. Transcribed by Pedro Ramoneda to MusicXML</source>









 </identification>
 <defaults>
  <scaling>
   <millimeters>70</millimeters>
   <tenths>400</tenths>
  </scaling>
  <page-layout>
   <page-height>1452</page-height>
   <page-width>1273</page-width>
  </page-layout>
 </defaults>
 <part-list>
  <score-part id="P1">
   <part-name></part-name>
   <part-abbreviation></part-abbreviation>
   <score-instrument id="P1-I1">
    <instrument-name></instrument-name>
   </score-instrument>
   <midi-instrument id="P1-I1">
    <midi-channel>1</midi-channel>
    <midi-program>1</midi-program>
   </midi-instrument>
  </score-part>
  <score-part id="P2">
   <part-name></part-name>
   <part-abbreviation></part-abbreviation>
   <score-instrument id="P2-I1">
    <instrument-name></instrument-name>
   </score-instrument>
   <midi-instrument id="P2-I1">
    <midi-channel>2</midi-channel>
    <midi-program>1</midi-program>
   </midi-instrument>
  </score-part>
 </part-list>
 <part id="P1">
  <measure number="1">
   <attributes>
    <divisions>1</divisions>
    <time>
     <beats>3</beats>
     <beat-type>2</beat-type>
    </time>
    <clef number="1">
     <sign>G</sign>
     <line>2</line>
    </clef>
   </attributes>
   <direction placement="above">
    <direction-type>
     <metronome relative-y="22" relative-x="-31">
      <beat-unit>quarter</beat-unit>
      <per-minute>104</per-minute>
     </metronome>
    </direction-type>
   </direction>
   <note>
    <rest/>
    <duration>1</duration>
    <voice>1</voice>
    <type>quarter</type>
   </note>
   <note>
    <pitch>
     <step>D</step>
     <octave>5</octave>
    </pitch>
    <duration>1</duration>
    <voice>1</voice>
    <type>quarter</type>
    <stem>down</stem>
   </note>
   <note>
    <pitch>
     <step>C</step>
     <octave>5</octave>
    </pitch>
    <duration>1</duration>
    <voice>1</voice>
    <type>quarter</type>
    <stem>down</stem>
   </note>
   <note>
    <pitch>
     <step>B</step>
     <octave>4</octave>
    </pitch>
    <duration>1</duration>
    <voice>1</voice>
    <type>quarter</type>
    <stem>down</stem>
   </note>
   <note>
    <pitch>
     <step>A</step>
     <octave>4</octave>
    </pitch>
    <duration>2</duration>
    <tie type="start"/>
    <voice>1</voice>
    <type>half</type>
    <stem>up</stem>
    <notations>
     <tied type="start"/>
    </notations>
   </note>
  </measure>
  <measure number="2">
   <note>
    <pitch>
     <step>A</step>
     <octave>4</octave>
    </pitch>
    <duration>1</duration>
    <tie type="stop"/>
    <voice>1</voice>
    <type>quarter</type>
    <stem>up</stem>
    <notations>
     <tied type="stop"/>
    </notations>
   </note>
   <note>
    <pitch>
     <step>B</step>
     <octave>4</octave>
    </pitch>
    <duration>1</duration>
    <voice>1</voice>
    <type>quarter</type>
    <stem>down</stem>
   </note>
   <note>
    <pitch>
     <step>C</step>
     <octave>5</octave>
    </pitch>
    <duration>1</duration>
    <voice>1</voice>
    <type>quarter</type>
    <stem>down</stem>
   </note>
   <note>
    <pitch>
     <step>G</step>
     <octave>4</octave>
    </pitch>
    <duration>1</duration>
    <voice>1</voice>
    <type>quarter</type>
    <stem>up</stem>
   </note>
   <note>
    <pitch>
     <step>A</step>
     <octave>4</octave>
    </pitch>
    <duration>2</duration>
    <tie type="start"/>
    <voice>1</voice>
    <type>half</type>
    <stem>up</stem>
    <notations>
     <tied type="start"/>
    </notations>
   </note>
  </measure>
  <measure number="3">
   <note>
    <pitch>
     <step>A</step>
     <octave>4</octave>
    </pitch>
    <duration>1</duration>
    <tie type="stop"/>
    <voice>1</voice>
    <type>quarter</type>
    <stem>up</stem>
    <notations>
     <tied type="stop"/>
    </notations>
   </note>
   <direction placement="above">
    <direction-type>
     <wedge type="diminuendo" spread="5" relative-y="111" relative-x="2"/>
    </direction-type>
    <offset>0</offset>
   </direction>
   <note>
    <pitch>
     <step>G</step>
     <octave>4</octave>
    </pitch>
    <duration>1</duration>
    <voice>1</voice>
    <type>quarter</type>
    <stem>up</stem>
   </note>
   <direction placement="above">
    <direction-type>
     <wedge type="stop" spread="0" relative-y="111" relative-x="2"/>
    </direction-type>
    <offset>0</offset>
   </direction>
   <note>
    <pitch>
     <step>A</step>
     <octave>4</octave>
    </pitch>
    <duration>1</duration>
    <voice>1</voice>
    <type>quarter</type>
    <stem>up</stem>
   </note>
   <note>
    <pitch>
     <step>B</step>
     <octave>4</octave>
    </pitch>
    <duration>1</duration>
    <voice>1</voice>
    <type>quarter</type>
    <stem>down</stem>
   </note>
   <note>
    <pitch>
     <step>C</step>
     <octave>5</octave>
    </pitch>
    <duration>1</duration>
    <voice>1</voice>
    <type>quarter</type>
    <stem>down</stem>
   </note>
   <note>
    <pitch>
     <step>D</step>
     <octave>5</octave>
    </pitch>
    <duration>1</duration>
    <voice>1</voice>
    <type>quarter</type>
    <stem>down</stem>
   </note>
  </measure>
  <measure number="4">
   <print new-system="yes"/>
   <note>
    <pitch>
     <step>B</step>
     <octave>4</octave>
    </pitch>
    <duration>4</duration>
    <tie type="start"/>
    <voice>1</voice>
    <type>whole</type>
    <stem>down</stem>
    <notations>
     <tied type="start"/>
    </notations>
   </note>
   <note>
    <pitch>
     <step>B</step>
     <octave>4</octave>
    </pitch>
    <duration>1</duration>
    <tie type="stop"/>
    <voice>1</voice>
    <type>quarter</type>
    <stem>down</stem>
    <notations>
     <tied type="stop"/>
    </notations>
   </note>
   <note>
    <pitch>
     <step>C</step>
     <octave>5</octave>
    </pitch>
    <duration>1</duration>
    <voice>1</voice>
    <type>quarter</type>
    <stem>down</stem>
   </note>
  </measure>
  <measure number="5">
   <note>
    <pitch>
     <step>A</step>
     <octave>4</octave>
    </pitch>
    <duration>3</duration>
    <voice>1</voice>
    <type>half</type>
    <dot/>
    <stem>up</stem>
   </note>
   <note>
    <pitch>
     <step>D</step>
     <octave>5</octave>
    </pitch>
    <duration>1</duration>
    <voice>1</voice>
    <type>quarter</type>
    <stem>down</stem>
   </note>
   <note>
    <pitch>
     <step>A</step>
     <octave>4</octave>
    </pitch>
    <duration>1</duration>
    <voice>1</voice>
    <type>quarter</type>
    <stem>up</stem>
   </note>
   <note>
    <pitch>
     <step>B</step>
     <octave>4</octave>
    </pitch>
    <duration>1</duration>
    <voice>1</voice>
    <type>quarter</type>
    <stem>down</stem>
   </note>
  </measure>
  <measure number="6">
   <note>
    <pitch>
     <step>G</step>
     <octave>4</octave>
    </pitch>
    <duration>1</duration>
    <voice>1</voice>
    <type>quarter</type>
    <stem>up</stem>
   </note>
   <note>
    <pitch>
     <step>A</step>
     <octave>4</octave>
    </pitch>
    <duration>1</duration>
    <voice>1</voice>
    <type>quarter</type>
    <stem>up</stem>
   </note>
   <note>
    <pitch>
     <step>B</step>
     <octave>4</octave>
    </pitch>
    <duration>1</duration>
    <voice>1</voice>
    <type>quarter</type>
    <stem>down</stem>
   </note>
   <note>
    <pitch>
     <step>C</step>
     <octave>5</octave>
    </pitch>
    <duration>1</duration>
    <voice>1</voice>
    <type>quarter</type>
    <stem>down</stem>
   </note>
   <note>
    <pitch>
     <step>A</step>
     <octave>4</octave>
    </pitch>
    <duration>1</duration>
    <voice>1</voice>
    <type>quarter</type>
    <stem>up</stem>
    <notations>
     <articulations>
      <staccato/>
     </articulations>
    </notations>
   </note>
   <note>
    <rest/>
    <duration>1</duration>
    <voice>1</voice>
    <type>quarter</type>
   </note>
  </measure>
  <measure number="7">
   <print new-system="yes"/>
   <note>
    <rest/>
    <duration>1</duration>
    <voice>1</voice>
    <type>quarter</type>
   </note>
   <note>
    <pitch>
     <step>C</step>
     <octave>5</octave>
    </pitch>
    <duration>1</duration>
    <voice>1</voice>
    <type>quarter</type>
    <stem>down</stem>
   </note>
   <note>
    <pitch>
     <step>B</step>
     <octave>4</octave>
    </pitch>
    <duration>2</duration>
    <voice>1</voice>
    <type>half</type>
    <stem>down</stem>
   </note>
   <note>
    <pitch>
     <step>G</step>
     <octave>4</octave>
    </pitch>
    <duration>2</duration>
    <voice>1</voice>
    <type>half</type>
    <stem>up</stem>
   </note>
  </measure>
  <measure number="8">
   <note>
    <rest/>
    <duration>2</duration>
    <voice>1</voice>
    <type>half</type>
   </note>
   <note>
    <pitch>
     <step>A</step>
     <octave>4</octave>
    </pitch>
    <duration>2</duration>
    <voice>1</voice>
    <type>half</type>
    <stem>up</stem>
   </note>
   <note>
    <pitch>
     <step>C</step>
     <octave>5</octave>
    </pitch>
    <duration>1</duration>
    <voice>1</voice>
    <type>quarter</type>
    <stem>down</stem>
   </note>
   <note>
    <rest/>
    <duration>1</duration>
    <voice>1</voice>
    <type>quarter</type>
   </note>
  </measure>
  <measure number="9">
   <note>
    <rest/>
    <duration>1</duration>
    <voice>1</voice>
    <type>quarter</type>
   </note>
   <note>
    <pitch>
     <step>D</step>
     <octave>5</octave>
    </pitch>
    <duration>1</duration>
    <voice>1</voice>
    <type>quarter</type>
    <stem>down</stem>
   </note>
   <note>
    <pitch>
     <step>A</step>
     <octave>4</octave>
    </pitch>
    <duration>2</duration>
    <voice>1</voice>
    <type>half</type>
    <stem>up</stem>
   </note>
   <note>
    <pitch>
     <step>C</step>
     <octave>5</octave>
    </pitch>
    <duration>1</duration>
    <voice>1</voice>
    <type>quarter</type>
    <stem>down</stem>
   </note>
   <note>
    <rest/>
    <duration>1</duration>
    <voice>1</voice>
    <type>quarter</type>
   </note>
  </measure>
  <measure number="10">
   <note>
    <rest/>
    <duration>1</duration>
    <voice>1</voice>
    <type>quarter</type>
   </note>
   <note>
    <pitch>
     <step>G</step>
     <octave>4</octave>
    </pitch>
    <duration>1</duration>
    <voice>1</voice>
    <type>quarter</type>
    <stem>up</stem>
   </note>
   <note>
    <pitch>
     <step>A</step>
     <octave>4</octave>
    </pitch>
    <duration>1</duration>
    <voice>1</voice>
    <type>quarter</type>
    <stem>up</stem>
   </note>
   <note>
    <pitch>
     <step>D</step>
     <octave>5</octave>
    </pitch>
    <duration>1</duration>
    <voice>1</voice>
    <type>quarter</type>
    <stem>down</stem>
   </note>
   <note>
    <pitch>
     <step>C</step>
     <octave>5</octave>
    </pitch>
    <duration>1</duration>
    <voice>1</voice>
    <type>quarter</type>
    <stem>down</stem>
   </note>
   <note>
    <rest/>
    <duration>1</duration>
    <voice>1</voice>
    <type>quarter</type>
   </note>
  </measure>
  <measure number="11">
   <print new-system="yes"/>
   <note>
    <rest/>
    <duration>1</duration>
    <voice>1</voice>
    <type>quarter</type>
   </note>
   <note>
    <pitch>
     <step>G</step>
     <octave>4</octave>
    </pitch>
    <duration>1</duration>
    <voice>1</voice>
    <type>quarter</type>
    <stem>up</stem>
   </note>
   <note>
    <pitch>
     <step>A</step>
     <octave>4</octave>
    </pitch>
    <duration>1</duration>
    <voice>1</voice>
    <type>quarter</type>
    <stem>up</stem>
   </note>
   <note>
    <pitch>
     <step>D</step>
     <octave>5</octave>
    </pitch>
    <duration>1</duration>
    <voice>1</voice>
    <type>quarter</type>
    <stem>down</stem>
   </note>
   <note>
    <pitch>
     <step>C</step>
     <octave>5</octave>
    </pitch>
    <duration>1</duration>
    <voice>1</voice>
    <type>quarter</type>
    <stem>down</stem>
   </note>
   <note>
    <pitch>
     <step>B</step>
     <octave>4</octave>
    </pitch>
    <duration>1</duration>
    <voice>1</voice>
    <type>quarter</type>
    <stem>down</stem>
   </note>
  </measure>
  <measure number="12">
   <note>
    <pitch>
     <step>A</step>
     <octave>4</octave>
    </pitch>
    <duration>1</duration>
    <voice>1</voice>
    <type>quarter</type>
    <stem>up</stem>
   </note>
   <note>
    <pitch>
     <step>B</step>
     <octave>4</octave>
    </pitch>
    <duration>1</duration>
    <voice>1</voice>
    <type>quarter</type>
    <stem>down</stem>
   </note>
   <note>
    <pitch>
     <step>C</step>
     <octave>5</octave>
    </pitch>
    <duration>1</duration>
    <voice>1</voice>
    <type>quarter</type>
    <stem>down</stem>
   </note>
   <note>
    <pitch>
     <step>G</step>
     <octave>4</octave>
    </pitch>
    <duration>1</duration>
    <voice>1</voice>
    <type>quarter</type>
    <stem>up</stem>
   </note>
   <note>
    <pitch>
     <step>A</step>
     <octave>4</octave>
    </pitch>
    <duration>1</duration>
    <voice>1</voice>
    <type>quarter</type>
    <stem>up</stem>
   </note>
   <note>
    <pitch>
     <step>D</step>
     <octave>5</octave>
    </pitch>
    <duration>1</duration>
    <voice>1</voice>
    <type>quarter</type>
    <stem>down</stem>
   </note>
  </measure>
  <measure number="13">
   <note>
    <pitch>
     <step>C</step>
     <octave>5</octave>
    </pitch>
    <duration>1</duration>
    <voice>1</voice>
    <type>quarter</type>
    <stem>down</stem>
   </note>
   <note>
    <pitch>
     <step>B</step>
     <octave>4</octave>
    </pitch>
    <duration>1</duration>
    <voice>1</voice>
    <type>quarter</type>
    <stem>down</stem>
   </note>
   <note>
    <pitch>
     <step>A</step>
     <octave>4</octave>
    </pitch>
    <duration>2</duration>
    <voice>1</voice>
    <type>half</type>
    <stem>up</stem>
   </note>
   <note>
    <pitch>
     <step>G</step>
     <octave>4</octave>
    </pitch>
    <duration>2</duration>
    <voice>1</voice>
    <type>half</type>
    <stem>up</stem>
   </note>
  </measure>
  <measure number="14">
   <note>
    <pitch>
     <step>A</step>
     <octave>4</octave>
    </pitch>
    <duration>6</duration>
    <voice>1</voice>
    <type>whole</type>
    <dot/>
    <stem>up</stem>
   </note>
   <barline location="right">
    <bar-style>light-heavy</bar-style>
   </barline>
  </measure>
 </part>
 <part id="P2">
  <measure number="1">
   <attributes>
    <divisions>1</divisions>
    <time>
     <beats>3</beats>
     <beat-type>2</beat-type>
    </time>
    <clef number="1">
     <sign>G</sign>
     <line>2</line>
    </clef>
   </attributes>
   <note>
    <pitch>
     <step>D</step>
     <octave>4</octave>
    </pitch>
    <duration>4</duration>
    <tie type="start"/>
    <voice>1</voice>
    <type>whole</type>
    <stem>up</stem>
    <notations>
     <tied type="start"/>
    </notations>
   </note>
   <note>
    <pitch>
     <step>D</step>
     <octave>4</octave>
    </pitch>
    <duration>1</duration>
    <tie type="stop"/>
    <voice>1</voice>
    <type>quarter</type>
    <stem>up</stem>
    <notations>
     <tied type="stop"/>
    </notations>
   </note>
   <note>
    <pitch>
     <step>G</step>
     <octave>4</octave>
    </pitch>
    <duration>1</duration>
    <voice>1</voice>
    <type>quarter</type>
    <stem>up</stem>
   </note>
  </measure>
  <measure number="2">
   <note>
    <pitch>
     <step>D</step>
     <octave>4</octave>
    </pitch>
    <duration>4</duration>
    <tie type="start"/>
    <voice>1</voice>
    <type>whole</type>
    <stem>up</stem>
    <notations>
     <tied type="start"/>
    </notations>
   </note>
   <note>
    <pitch>
     <step>D</step>
     <octave>4</octave>
    </pitch>
    <duration>1</duration>
    <tie type="stop"/>
    <voice>1</voice>
    <type>quarter</type>
    <stem>up</stem>
    <notations>
     <tied type="stop"/>
    </notations>
   </note>
   <note>
    <pitch>
     <step>C</step>
     <octave>4</octave>
    </pitch>
    <duration>1</duration>
    <voice>1</voice>
    <type>quarter</type>
    <stem>up</stem>
   </note>
  </measure>
  <measure number="3">
   <note>
    <pitch>
     <step>D</step>
     <octave>4</octave>
    </pitch>
    <duration>3</duration>
    <voice>1</voice>
    <type>half</type>
    <dot/>
    <stem>up</stem>
   </note>
   <note>
    <pitch>
     <step>D</step>
     <octave>4</octave>
    </pitch>
    <duration>1</duration>
    <voice>1</voice>
    <type>quarter</type>
    <stem>up</stem>
   </note>
   <note>
    <pitch>
     <step>E</step>
     <octave>4</octave>
    </pitch>
    <duration>1</duration>
    <voice>1</voice>
    <type>quarter</type>
    <stem>up</stem>
   </note>
   <note>
    <pitch>
     <step>F</step>
     <octave>4</octave>
    </pitch>
    <duration>1</duration>
    <voice>1</voice>
    <type>quarter</type>
    <stem>up</stem>
   </note>
  </measure>
  <measure number="4">
   <print new-system="yes"/>
   <note>
    <pitch>
     <step>G</step>
     <octave>4</octave>
    </pitch>
    <duration>1</duration>
    <voice>1</voice>
    <type>quarter</type>
    <stem>up</stem>
   </note>
   <note>
    <pitch>
     <step>D</step>
     <octave>4</octave>
    </pitch>
    <duration>1</duration>
    <voice>1</voice>
    <type>quarter</type>
    <stem>up</stem>
   </note>
   <note>
    <pitch>
     <step>E</step>
     <octave>4</octave>
    </pitch>
    <duration>1</duration>
    <voice>1</voice>
    <type>quarter</type>
    <stem>up</stem>
   </note>
   <note>
    <pitch>
     <step>F</step>
     <octave>4</octave>
    </pitch>
    <duration>1</duration>
    <voice>1</voice>
    <type>quarter</type>
    <stem>up</stem>
   </note>
   <note>
    <pitch>
     <step>G</step>
     <octave>4</octave>
    </pitch>
    <duration>1</duration>
    <voice>1</voice>
    <type>quarter</type>
    <stem>up</stem>
   </note>
   <note>
    <pitch>
     <step>E</step>
     <octave>4</octave>
    </pitch>
    <duration>1</duration>
    <voice>1</voice>
    <type>quarter</type>
    <stem>up</stem>
   </note>
  </measure>
  <measure number="5">
   <note>
    <pitch>
     <step>G</step>
     <octave>4</octave>
    </pitch>
    <duration>1</duration>
    <voice>1</voice>
    <type>quarter</type>
    <stem>up</stem>
   </note>
   <note>
    <pitch>
     <step>C</step>
     <octave>4</octave>
    </pitch>
    <duration>1</duration>
    <voice>1</voice>
    <type>quarter</type>
    <stem>up</stem>
   </note>
   <note>
    <pitch>
     <step>D</step>
     <octave>4</octave>
    </pitch>
    <duration>1</duration>
    <voice>1</voice>
    <type>quarter</type>
    <stem>up</stem>
   </note>
   <note>
    <pitch>
     <step>E</step>
     <octave>4</octave>
    </pitch>
    <duration>1</duration>
    <voice>1</voice>
    <type>quarter</type>
    <stem>up</stem>
   </note>
   <note>
    <pitch>
     <step>F</step>
     <octave>4</octave>
    </pitch>
    <duration>2</duration>
    <tie type="start"/>
    <voice>1</voice>
    <type>half</type>
    <stem>up</stem>
    <notations>
     <tied type="start"/>
    </notations>
   </note>
  </measure>
  <measure number="6">
   <note>
    <pitch>
     <step>F</step>
     <octave>4</octave>
    </pitch>
    <duration>2</duration>
    <tie type="stop"/>
    <voice>1</voice>
    <type>half</type>
    <stem>up</stem>
    <notations>
     <tied type="stop"/>
    </notations>
   </note>
   <note>
    <pitch>
     <step>D</step>
     <octave>4</octave>
    </pitch>
    <duration>1</duration>
    <voice>1</voice>
    <type>quarter</type>
    <stem>up</stem>
   </note>
   <note>
    <pitch>
     <step>E</step>
     <octave>4</octave>
    </pitch>
    <duration>1</duration>
    <voice>1</voice>
    <type>quarter</type>
    <stem>up</stem>
   </note>
   <note>
    <pitch>
     <step>C</step>
     <octave>4</octave>
    </pitch>
    <duration>1</duration>
    <voice>1</voice>
    <type>quarter</type>
    <stem>up</stem>
   </note>
   <note>
    <pitch>
     <step>F</step>
     <octave>4</octave>
    </pitch>
    <duration>1</duration>
    <voice>1</voice>
    <type>quarter</type>
    <stem>up</stem>
   </note>
  </measure>
  <measure number="7">
   <print new-system="yes"/>
   <note>
    <pitch>
     <step>D</step>
     <octave>4</octave>
    </pitch>
    <duration>1</duration>
    <voice>1</voice>
    <type>quarter</type>
    <stem>up</stem>
   </note>
   <note>
    <pitch>
     <step>C</step>
     <octave>4</octave>
    </pitch>
    <duration>1</duration>
    <voice>1</voice>
    <type>quarter</type>
    <stem>up</stem>
   </note>
   <note>
    <pitch>
     <step>E</step>
     <octave>4</octave>
    </pitch>
    <duration>2</duration>
    <voice>1</voice>
    <type>half</type>
    <stem>up</stem>
   </note>
   <note>
    <pitch>
     <step>G</step>
     <octave>4</octave>
    </pitch>
    <duration>2</duration>
    <voice>1</voice>
    <type>half</type>
    <stem>up</stem>
   </note>
  </measure>
  <measure number="8">
   <note>
    <pitch>
     <step>D</step>
     <octave>4</octave>
    </pitch>
    <duration>3</duration>
    <voice>1</voice>
    <type>half</type>
    <dot/>
    <stem>up</stem>
   </note>
   <note>
    <pitch>
     <step>C</step>
     <octave>4</octave>
    </pitch>
    <duration>1</duration>
    <voice>1</voice>
    <type>quarter</type>
    <stem>up</stem>
   </note>
   <note>
    <pitch>
     <step>E</step>
     <octave>4</octave>
    </pitch>
    <duration>1</duration>
    <voice>1</voice>
    <type>quarter</type>
    <stem>up</stem>
   </note>
   <note>
    <pitch>
     <step>G</step>
     <octave>4</octave>
    </pitch>
    <duration>1</duration>
    <voice>1</voice>
    <type>quarter</type>
    <stem>up</stem>
   </note>
  </measure>
  <measure number="9">
   <note>
    <pitch>
     <step>D</step>
     <octave>4</octave>
    </pitch>
    <duration>3</duration>
    <voice>1</voice>
    <type>half</type>
    <dot/>
    <stem>up</stem>
   </note>
   <note>
    <pitch>
     <step>C</step>
     <octave>4</octave>
    </pitch>
    <duration>1</duration>
    <voice>1</voice>
    <type>quarter</type>
    <stem>up</stem>
   </note>
   <note>
    <pitch>
     <step>E</step>
     <octave>4</octave>
    </pitch>
    <duration>1</duration>
    <voice>1</voice>
    <type>quarter</type>
    <stem>up</stem>
   </note>
   <note>
    <pitch>
     <step>G</step>
     <octave>4</octave>
    </pitch>
    <duration>1</duration>
    <voice>1</voice>
    <type>quarter</type>
    <stem>up</stem>
   </note>
  </measure>
  <measure number="10">
   <note>
    <pitch>
     <step>D</step>
     <octave>4</octave>
    </pitch>
    <duration>3</duration>
    <voice>1</voice>
    <type>half</type>
    <dot/>
    <stem>up</stem>
   </note>
   <note>
    <pitch>
     <step>C</step>
     <octave>4</octave>
    </pitch>
    <duration>1</duration>
    <voice>1</voice>
    <type>quarter</type>
    <stem>up</stem>
   </note>
   <note>
    <pitch>
     <step>E</step>
     <octave>4</octave>
    </pitch>
    <duration>1</duration>
    <voice>1</voice>
    <type>quarter</type>
    <stem>up</stem>
   </note>
   <note>
    <pitch>
     <step>G</step>
     <octave>4</octave>
    </pitch>
    <duration>1</duration>
    <voice>1</voice>
    <type>quarter</type>
    <stem>up</stem>
   </note>
  </measure>
  <measure number="11">
   <print new-system="yes"/>
   <note>
    <pitch>
     <step>D</step>
     <octave>4</octave>
    </pitch>
    <duration>3</duration>
    <voice>1</voice>
    <type>half</type>
    <dot/>
    <stem>up</stem>
   </note>
   <note>
    <pitch>
     <step>C</step>
     <octave>4</octave>
    </pitch>
    <duration>1</duration>
    <voice>1</voice>
    <type>quarter</type>
    <stem>up</stem>
   </note>
   <note>
    <pitch>
     <step>E</step>
     <octave>4</octave>
    </pitch>
    <duration>1</duration>
    <voice>1</voice>
    <type>quarter</type>
    <stem>up</stem>
   </note>
   <note>
    <pitch>
     <step>G</step>
     <octave>4</octave>
    </pitch>
    <duration>1</duration>
    <tie type="start"/>
    <voice>1</voice>
    <type>quarter</type>
    <stem>up</stem>
    <notations>
     <tied type="start"/>
    </notations>
   </note>
  </measure>
  <measure number="12">
   <note>
    <pitch>
     <step>G</step>
     <octave>4</octave>
    </pitch>
    <duration>1</duration>
    <tie type="stop"/>
    <voice>1</voice>
    <type>quarter</type>
    <stem>up</stem>
    <notations>
     <tied type="stop"/>
    </notations>
   </note>
   <note>
    <pitch>
     <step>F</step>
     <octave>4</octave>
    </pitch>
    <duration>1</duration>
    <voice>1</voice>
    <type>quarter</type>
    <stem>up</stem>
   </note>
   <note>
    <pitch>
     <step>E</step>
     <octave>4</octave>
    </pitch>
    <duration>1</duration>
    <voice>1</voice>
    <type>quarter</type>
    <stem>up</stem>
   </note>
   <note>
    <pitch>
     <step>G</step>
     <octave>4</octave>
    </pitch>
    <duration>2</duration>
    <voice>1</voice>
    <type>half</type>
    <stem>up</stem>
   </note>
   <note>
    <pitch>
     <step>F</step>
     <octave>4</octave>
    </pitch>
    <duration>1</duration>
    <voice>1</voice>
    <type>quarter</type>
    <stem>up</stem>
   </note>
  </measure>
  <measure number="13">
   <note>
    <pitch>
     <step>E</step>
     <octave>4</octave>
    </pitch>
    <duration>1</duration>
    <voice>1</voice>
    <type>quarter</type>
    <stem>up</stem>
   </note>
   <note>
    <pitch>
     <step>C</step>
     <octave>4</octave>
    </pitch>
    <duration>1</duration>
    <voice>1</voice>
    <type>quarter</type>
    <stem>up</stem>
   </note>
   <note>
    <pitch>
     <step>F</step>
     <octave>4</octave>
    </pitch>
    <duration>2</duration>
    <voice>1</voice>
    <type>half</type>
    <stem>up</stem>
   </note>
   <note>
    <pitch>
     <step>E</step>
     <octave>4</octave>
    </pitch>
    <duration>2</duration>
    <voice>1</voice>
    <type>half</type>
    <stem>up</stem>
   </note>
  </measure>
  <measure number="14">
   <note>
    <pitch>
     <step>D</step>
     <octave>4</octave>
    </pitch>
    <duration>6</duration>
    <voice>1</voice>
    <type>whole</type>
    <dot/>
    <stem>up</stem>
   </note>
   <note>
    <chord/>
    <pitch>
     <step>F</step>
     <alter>1</alter>
     <octave>4</octave>
    </pitch>
    <duration>6</duration>
    <voice>1</voice>
    <type>whole</type>
    <dot/>
    <accidental>sharp</accidental>
    <stem>up</stem>
   </note>
   <barline location="right">
    <bar-style>light-heavy</bar-style>
   </barline>
  </measure>
 </part>
</score-partwise>
