<?xml version="1.0" encoding="UTF-8" standalone="no"?>
<!DOCTYPE score-partwise PUBLIC "-//Recordare//DTD MusicXML 2.0 Partwise//EN" "http://www.musicxml.org/dtds/partwise.dtd">
<score-partwise version="2.0">
 <work>
  <work-title>Hungarian Song, Mikrokosmos, Sz. 107</work-title>
 </work>
 <identification>
  <creator type="composer">Béla Bártok</creator>
  <creator type="poet"></creator>
  <rights></rights>
  <encoding>
   <encoding-description>MusicXML 2.0</encoding-description>
  </encoding>
  <source>Mikrokosmos expired copy-right edition. Transcribed by Pedro Ramoneda to MusicXML</source>





 </identification>
 <defaults>
  <scaling>
   <millimeters>65</millimeters>
   <tenths>400</tenths>
  </scaling>
  <page-layout>
   <page-height>1512</page-height>
   <page-width>1272</page-width>
  </page-layout>
 </defaults>
 <part-list>
  <score-part id="P1">
   <part-name></part-name>
   <part-abbreviation></part-abbreviation>
   <score-instrument id="P1-I1">
    <instrument-name></instrument-name>
   </score-instrument>
   <midi-instrument id="P1-I1">
    <midi-channel>1</midi-channel>
    <midi-program>1</midi-program>
   </midi-instrument>
  </score-part>
  <score-part id="P2">
   <part-name></part-name>
   <part-abbreviation></part-abbreviation>
   <score-instrument id="P2-I1">
    <instrument-name></instrument-name>
   </score-instrument>
   <midi-instrument id="P2-I1">
    <midi-channel>2</midi-channel>
    <midi-program>1</midi-program>
   </midi-instrument>
  </score-part>
 </part-list>
 <part id="P1">
  <measure number="1">
   <direction placement="above">
     <direction-type>
      <metronome relative-y="27" relative-x="-36">
       <beat-unit>quarter</beat-unit>
       <per-minute>106</per-minute>
      </metronome>
     </direction-type>
    </direction>
   <attributes>
    <divisions>2</divisions>
    <time>
     <beats>2</beats>
     <beat-type>4</beat-type>
    </time>
    <clef number="1">
     <sign>G</sign>
     <line>2</line>
    </clef>
   </attributes>
   <note>
    <pitch>
     <step>E</step>
     <octave>5</octave>
    </pitch>
    <duration>1</duration>
    <voice>1</voice>
    <type>eighth</type>
    <stem>up</stem>
    <beam number="1">begin</beam>
   </note>
   <note>
    <pitch>
     <step>F</step>
     <octave>5</octave>
    </pitch>
    <duration>1</duration>
    <voice>1</voice>
    <type>eighth</type>
    <stem>up</stem>
    <beam number="1">continue</beam>
   </note>
   <note>
    <pitch>
     <step>G</step>
     <octave>5</octave>
    </pitch>
    <duration>1</duration>
    <voice>1</voice>
    <type>eighth</type>
    <stem>up</stem>
    <beam number="1">continue</beam>
   </note>
   <note>
    <pitch>
     <step>D</step>
     <octave>5</octave>
    </pitch>
    <duration>1</duration>
    <voice>1</voice>
    <type>eighth</type>
    <stem>up</stem>
    <beam number="1">end</beam>
   </note>
  </measure>
  <measure number="2">
   <note>
    <pitch>
     <step>E</step>
     <octave>5</octave>
    </pitch>
    <duration>1</duration>
    <voice>1</voice>
    <type>eighth</type>
    <stem>up</stem>
    <beam number="1">begin</beam>
   </note>
   <note>
    <pitch>
     <step>F</step>
     <octave>5</octave>
    </pitch>
    <duration>1</duration>
    <voice>1</voice>
    <type>eighth</type>
    <stem>up</stem>
    <beam number="1">continue</beam>
   </note>
   <note>
    <pitch>
     <step>G</step>
     <octave>5</octave>
    </pitch>
    <duration>1</duration>
    <voice>1</voice>
    <type>eighth</type>
    <stem>up</stem>
    <beam number="1">continue</beam>
   </note>
   <note>
    <pitch>
     <step>D</step>
     <octave>5</octave>
    </pitch>
    <duration>1</duration>
    <voice>1</voice>
    <type>eighth</type>
    <stem>up</stem>
    <beam number="1">end</beam>
   </note>
  </measure>
  <measure number="3">
   <note>
    <pitch>
     <step>E</step>
     <octave>5</octave>
    </pitch>
    <duration>1</duration>
    <voice>1</voice>
    <type>eighth</type>
    <stem>up</stem>
    <beam number="1">begin</beam>
   </note>
   <note>
    <pitch>
     <step>F</step>
     <octave>5</octave>
    </pitch>
    <duration>1</duration>
    <voice>1</voice>
    <type>eighth</type>
    <stem>up</stem>
    <beam number="1">continue</beam>
   </note>
   <note>
    <pitch>
     <step>G</step>
     <octave>5</octave>
    </pitch>
    <duration>1</duration>
    <voice>1</voice>
    <type>eighth</type>
    <stem>up</stem>
    <beam number="1">continue</beam>
   </note>
   <note>
    <pitch>
     <step>D</step>
     <octave>5</octave>
    </pitch>
    <duration>1</duration>
    <voice>1</voice>
    <type>eighth</type>
    <stem>up</stem>
    <beam number="1">end</beam>
   </note>
  </measure>
  <measure number="4">
   <note>
    <pitch>
     <step>E</step>
     <octave>5</octave>
    </pitch>
    <duration>1</duration>
    <voice>1</voice>
    <type>eighth</type>
    <stem>up</stem>
    <beam number="1">begin</beam>
   </note>
   <note>
    <pitch>
     <step>F</step>
     <octave>5</octave>
    </pitch>
    <duration>1</duration>
    <voice>1</voice>
    <type>eighth</type>
    <stem>up</stem>
    <beam number="1">continue</beam>
   </note>
   <note>
    <pitch>
     <step>G</step>
     <octave>5</octave>
    </pitch>
    <duration>1</duration>
    <voice>1</voice>
    <type>eighth</type>
    <stem>up</stem>
    <beam number="1">continue</beam>
   </note>
   <note>
    <pitch>
     <step>D</step>
     <octave>5</octave>
    </pitch>
    <duration>1</duration>
    <voice>1</voice>
    <type>eighth</type>
    <stem>up</stem>
    <beam number="1">end</beam>
   </note>
  </measure>
  <measure number="5">
   <note>
    <pitch>
     <step>C</step>
     <octave>5</octave>
    </pitch>
    <duration>4</duration>
    <tie type="start"/>
    <voice>2</voice>
    <type>half</type>
    <stem>down</stem>
    <notations>
     <tied type="start"/>
    </notations>
   </note>
   <backup>
    <duration>4</duration>
   </backup>
   <note>
    <pitch>
     <step>E</step>
     <octave>5</octave>
    </pitch>
    <duration>1</duration>
    <voice>1</voice>
    <type>eighth</type>
    <stem>up</stem>
    <beam number="1">begin</beam>
   </note>
   <note>
    <pitch>
     <step>F</step>
     <octave>5</octave>
    </pitch>
    <duration>1</duration>
    <voice>1</voice>
    <type>eighth</type>
    <stem>up</stem>
    <beam number="1">end</beam>
   </note>
   <note>
    <pitch>
     <step>G</step>
     <octave>5</octave>
    </pitch>
    <duration>1</duration>
    <voice>1</voice>
    <type>eighth</type>
    <stem>up</stem>
    <beam number="1">end</beam>
   </note>
   <note>
    <pitch>
     <step>D</step>
     <octave>5</octave>
    </pitch>
    <duration>1</duration>
    <voice>1</voice>
    <type>eighth</type>
    <stem>up</stem>
    <beam number="1">end</beam>
   </note>
  </measure>
  <measure number="6">
   <note>
    <pitch>
     <step>C</step>
     <octave>5</octave>
    </pitch>
    <duration>4</duration>
    <tie type="stop"/>
    <tie type="start"/>
    <voice>2</voice>
    <type>half</type>
    <stem>down</stem>
    <notations>
     <tied type="stop"/>
     <tied type="start"/>
    </notations>
   </note>
   <backup>
    <duration>4</duration>
   </backup>
   <note>
    <pitch>
     <step>E</step>
     <octave>5</octave>
    </pitch>
    <duration>1</duration>
    <voice>1</voice>
    <type>eighth</type>
    <stem>up</stem>
    <beam number="1">begin</beam>
   </note>
   <note>
    <pitch>
     <step>F</step>
     <octave>5</octave>
    </pitch>
    <duration>1</duration>
    <voice>1</voice>
    <type>eighth</type>
    <stem>up</stem>
    <beam number="1">end</beam>
   </note>
   <note>
    <pitch>
     <step>G</step>
     <octave>5</octave>
    </pitch>
    <duration>1</duration>
    <voice>1</voice>
    <type>eighth</type>
    <stem>up</stem>
    <beam number="1">end</beam>
   </note>
   <note>
    <pitch>
     <step>D</step>
     <octave>5</octave>
    </pitch>
    <duration>1</duration>
    <voice>1</voice>
    <type>eighth</type>
    <stem>up</stem>
    <beam number="1">end</beam>
   </note>
  </measure>
  <measure number="7">
   <print new-system="yes"/>
   <note>
    <pitch>
     <step>C</step>
     <octave>5</octave>
    </pitch>
    <duration>4</duration>
    <tie type="stop"/>
    <tie type="start"/>
    <voice>2</voice>
    <type>half</type>
    <stem>down</stem>
    <notations>
     <tied type="stop"/>
     <tied type="start"/>
    </notations>
   </note>
   <backup>
    <duration>4</duration>
   </backup>
   <note>
    <pitch>
     <step>E</step>
     <octave>5</octave>
    </pitch>
    <duration>1</duration>
    <voice>1</voice>
    <type>eighth</type>
    <stem>up</stem>
    <beam number="1">begin</beam>
   </note>
   <note>
    <pitch>
     <step>F</step>
     <octave>5</octave>
    </pitch>
    <duration>1</duration>
    <voice>1</voice>
    <type>eighth</type>
    <stem>up</stem>
    <beam number="1">end</beam>
   </note>
   <note>
    <pitch>
     <step>G</step>
     <octave>5</octave>
    </pitch>
    <duration>1</duration>
    <voice>1</voice>
    <type>eighth</type>
    <stem>up</stem>
    <beam number="1">end</beam>
   </note>
   <note>
    <pitch>
     <step>D</step>
     <octave>5</octave>
    </pitch>
    <duration>1</duration>
    <voice>1</voice>
    <type>eighth</type>
    <stem>up</stem>
    <beam number="1">end</beam>
   </note>
  </measure>
  <measure number="8">
   <note>
    <pitch>
     <step>C</step>
     <octave>5</octave>
    </pitch>
    <duration>4</duration>
    <tie type="stop"/>
    <tie type="start"/>
    <voice>2</voice>
    <type>half</type>
    <stem>down</stem>
    <notations>
     <tied type="stop"/>
     <tied type="start"/>
    </notations>
   </note>
   <backup>
    <duration>4</duration>
   </backup>
   <note>
    <pitch>
     <step>E</step>
     <octave>5</octave>
    </pitch>
    <duration>1</duration>
    <voice>1</voice>
    <type>eighth</type>
    <stem>up</stem>
    <beam number="1">begin</beam>
   </note>
   <note>
    <pitch>
     <step>F</step>
     <octave>5</octave>
    </pitch>
    <duration>1</duration>
    <voice>1</voice>
    <type>eighth</type>
    <stem>up</stem>
    <beam number="1">end</beam>
   </note>
   <note>
    <pitch>
     <step>G</step>
     <octave>5</octave>
    </pitch>
    <duration>1</duration>
    <voice>1</voice>
    <type>eighth</type>
    <stem>up</stem>
    <beam number="1">end</beam>
   </note>
   <note>
    <pitch>
     <step>D</step>
     <octave>5</octave>
    </pitch>
    <duration>1</duration>
    <voice>1</voice>
    <type>eighth</type>
    <stem>up</stem>
    <beam number="1">end</beam>
   </note>
  </measure>
  <measure number="9">
   <note>
    <pitch>
     <step>C</step>
     <octave>5</octave>
    </pitch>
    <duration>4</duration>
    <tie type="stop"/>
    <tie type="start"/>
    <voice>2</voice>
    <type>half</type>
    <stem>down</stem>
    <notations>
     <tied type="stop"/>
     <tied type="start"/>
    </notations>
   </note>
   <backup>
    <duration>4</duration>
   </backup>
   <note>
    <pitch>
     <step>E</step>
     <octave>5</octave>
    </pitch>
    <duration>1</duration>
    <voice>1</voice>
    <type>eighth</type>
    <stem>up</stem>
    <beam number="1">begin</beam>
   </note>
   <note>
    <pitch>
     <step>G</step>
     <octave>5</octave>
    </pitch>
    <duration>1</duration>
    <voice>1</voice>
    <type>eighth</type>
    <stem>up</stem>
    <beam number="1">end</beam>
   </note>
   <note>
    <pitch>
     <step>E</step>
     <octave>5</octave>
    </pitch>
    <duration>1</duration>
    <voice>1</voice>
    <type>eighth</type>
    <stem>up</stem>
    <beam number="1">end</beam>
   </note>
   <note>
    <pitch>
     <step>F</step>
     <octave>5</octave>
    </pitch>
    <duration>1</duration>
    <voice>1</voice>
    <type>eighth</type>
    <stem>up</stem>
    <beam number="1">end</beam>
   </note>
  </measure>
  <measure number="10">
   <note>
    <pitch>
     <step>C</step>
     <octave>5</octave>
    </pitch>
    <duration>1</duration>
    <tie type="stop"/>
    <voice>2</voice>
    <type>eighth</type>
    <stem>down</stem>
    <notations>
     <tied type="stop"/>
    </notations>
   </note>
   <backup>
    <duration>1</duration>
   </backup>
   <note>
    <pitch>
     <step>G</step>
     <octave>5</octave>
    </pitch>
    <duration>1</duration>
    <voice>1</voice>
    <type>eighth</type>
    <stem>up</stem>
   </note>
   <note>
    <rest/>
    <duration>1</duration>
    <voice>1</voice>
    <type>eighth</type>
   </note>
   <backup>
    <duration>1</duration>
   </backup>
   <note>
    <rest/>
    <duration>1</duration>
    <voice>2</voice>
    <type>eighth</type>
   </note>
   <note>
    <pitch>
     <step>C</step>
     <octave>5</octave>
    </pitch>
    <duration>2</duration>
    <tie type="start"/>
    <voice>2</voice>
    <type>quarter</type>
    <stem>down</stem>
    <notations>
     <tied type="start"/>
    </notations>
   </note>
   <backup>
    <duration>2</duration>
   </backup>
   <note>
    <pitch>
     <step>E</step>
     <octave>5</octave>
    </pitch>
    <duration>1</duration>
    <voice>1</voice>
    <type>eighth</type>
    <stem>up</stem>
    <beam number="1">begin</beam>
   </note>
   <note>
    <pitch>
     <step>G</step>
     <octave>5</octave>
    </pitch>
    <duration>1</duration>
    <voice>1</voice>
    <type>eighth</type>
    <stem>up</stem>
    <beam number="1">continue</beam>
   </note>
  </measure>
  <measure number="11">
   <note>
    <pitch>
     <step>C</step>
     <octave>5</octave>
    </pitch>
    <duration>3</duration>
    <tie type="stop"/>
    <voice>2</voice>
    <type>quarter</type>
    <dot/>
    <stem>down</stem>
    <notations>
     <tied type="stop"/>
    </notations>
   </note>
   <backup>
    <duration>3</duration>
   </backup>
   <note>
    <pitch>
     <step>E</step>
     <octave>5</octave>
    </pitch>
    <duration>1</duration>
    <voice>1</voice>
    <type>eighth</type>
    <stem>up</stem>
    <beam number="1">continue</beam>
   </note>
   <note>
    <pitch>
     <step>F</step>
     <octave>5</octave>
    </pitch>
    <duration>1</duration>
    <voice>1</voice>
    <type>eighth</type>
    <stem>up</stem>
    <beam number="1">end</beam>
   </note>
   <note>
    <pitch>
     <step>G</step>
     <octave>5</octave>
    </pitch>
    <duration>1</duration>
    <voice>1</voice>
    <type>eighth</type>
    <stem>up</stem>
   </note>
   <note>
    <rest/>
    <duration>1</duration>
    <voice>1</voice>
    <type>eighth</type>
   </note>
   <backup>
    <duration>1</duration>
   </backup>
   <note>
    <rest/>
    <duration>1</duration>
    <voice>2</voice>
    <type>eighth</type>
   </note>
  </measure>
  <measure number="12">
   <note>
    <pitch>
     <step>E</step>
     <octave>4</octave>
    </pitch>
    <duration>1</duration>
    <voice>1</voice>
    <type>eighth</type>
    <stem>up</stem>
    <beam number="1">begin</beam>
   </note>
   <note>
    <pitch>
     <step>G</step>
     <octave>4</octave>
    </pitch>
    <duration>1</duration>
    <voice>1</voice>
    <type>eighth</type>
    <stem>up</stem>
    <beam number="1">continue</beam>
   </note>
   <note>
    <pitch>
     <step>E</step>
     <octave>4</octave>
    </pitch>
    <duration>1</duration>
    <voice>1</voice>
    <type>eighth</type>
    <stem>up</stem>
    <beam number="1">continue</beam>
   </note>
   <note>
    <pitch>
     <step>F</step>
     <octave>4</octave>
    </pitch>
    <duration>1</duration>
    <voice>1</voice>
    <type>eighth</type>
    <stem>up</stem>
    <beam number="1">end</beam>
   </note>
  </measure>
  <measure number="13">
   <note>
    <pitch>
     <step>G</step>
     <octave>4</octave>
    </pitch>
    <duration>1</duration>
    <voice>1</voice>
    <type>eighth</type>
    <stem>up</stem>
   </note>
   <note>
    <rest/>
    <duration>1</duration>
    <voice>1</voice>
    <type>eighth</type>
   </note>
   <note>
    <rest/>
    <duration>2</duration>
    <voice>1</voice>
    <type>quarter</type>
   </note>
  </measure>
  <measure number="14">
   <print new-system="yes"/>
   <note>
    <pitch>
     <step>C</step>
     <octave>5</octave>
    </pitch>
    <duration>4</duration>
    <voice>2</voice>
    <type>half</type>
    <stem>down</stem>
   </note>
   <backup>
    <duration>4</duration>
   </backup>
   <note>
    <pitch>
     <step>C</step>
     <octave>5</octave>
    </pitch>
    <duration>1</duration>
    <voice>1</voice>
    <type>eighth</type>
    <stem>up</stem>
    <beam number="1">begin</beam>
   </note>
   <note>
    <pitch>
     <step>D</step>
     <octave>5</octave>
    </pitch>
    <duration>1</duration>
    <voice>1</voice>
    <type>eighth</type>
    <stem>up</stem>
    <beam number="1">end</beam>
   </note>
   <note>
    <pitch>
     <step>E</step>
     <octave>5</octave>
    </pitch>
    <duration>1</duration>
    <voice>1</voice>
    <type>eighth</type>
    <stem>up</stem>
    <beam number="1">end</beam>
   </note>
   <note>
    <pitch>
     <step>F</step>
     <octave>5</octave>
    </pitch>
    <duration>1</duration>
    <voice>1</voice>
    <type>eighth</type>
    <stem>up</stem>
    <beam number="1">end</beam>
   </note>
  </measure>
  <measure number="15">
   <note>
    <pitch>
     <step>C</step>
     <octave>5</octave>
    </pitch>
    <duration>4</duration>
    <voice>2</voice>
    <type>half</type>
    <stem>down</stem>
   </note>
   <backup>
    <duration>4</duration>
   </backup>
   <note>
    <pitch>
     <step>E</step>
     <octave>5</octave>
    </pitch>
    <duration>1</duration>
    <voice>1</voice>
    <type>eighth</type>
    <stem>up</stem>
    <beam number="1">begin</beam>
   </note>
   <note>
    <pitch>
     <step>D</step>
     <octave>5</octave>
    </pitch>
    <duration>1</duration>
    <voice>1</voice>
    <type>eighth</type>
    <stem>up</stem>
    <beam number="1">end</beam>
   </note>
   <note>
    <pitch>
     <step>E</step>
     <octave>5</octave>
    </pitch>
    <duration>2</duration>
    <voice>1</voice>
    <type>quarter</type>
    <stem>up</stem>
   </note>
  </measure>
  <measure number="16">
   <note>
    <pitch>
     <step>C</step>
     <octave>5</octave>
    </pitch>
    <duration>4</duration>
    <voice>2</voice>
    <type>half</type>
    <stem>down</stem>
   </note>
   <backup>
    <duration>4</duration>
   </backup>
   <note>
    <pitch>
     <step>C</step>
     <octave>5</octave>
    </pitch>
    <duration>1</duration>
    <voice>1</voice>
    <type>eighth</type>
    <stem>up</stem>
    <beam number="1">begin</beam>
   </note>
   <note>
    <pitch>
     <step>D</step>
     <octave>5</octave>
    </pitch>
    <duration>1</duration>
    <voice>1</voice>
    <type>eighth</type>
    <stem>up</stem>
    <beam number="1">end</beam>
   </note>
   <note>
    <pitch>
     <step>E</step>
     <octave>5</octave>
    </pitch>
    <duration>1</duration>
    <voice>1</voice>
    <type>eighth</type>
    <stem>up</stem>
    <beam number="1">end</beam>
   </note>
   <note>
    <pitch>
     <step>F</step>
     <octave>5</octave>
    </pitch>
    <duration>1</duration>
    <voice>1</voice>
    <type>eighth</type>
    <stem>up</stem>
    <beam number="1">end</beam>
   </note>
  </measure>
  <measure number="17">
   <note>
    <pitch>
     <step>C</step>
     <octave>5</octave>
    </pitch>
    <duration>4</duration>
    <tie type="start"/>
    <voice>2</voice>
    <type>half</type>
    <stem>down</stem>
    <notations>
     <tied type="start"/>
    </notations>
   </note>
   <backup>
    <duration>4</duration>
   </backup>
   <note>
    <pitch>
     <step>G</step>
     <octave>5</octave>
    </pitch>
    <duration>2</duration>
    <voice>1</voice>
    <type>quarter</type>
    <stem>up</stem>
   </note>
   <note>
    <pitch>
     <step>G</step>
     <octave>5</octave>
    </pitch>
    <duration>2</duration>
    <voice>1</voice>
    <type>quarter</type>
    <stem>up</stem>
   </note>
  </measure>
  <measure number="18">
   <note>
    <pitch>
     <step>C</step>
     <octave>5</octave>
    </pitch>
    <duration>4</duration>
    <tie type="stop"/>
    <tie type="start"/>
    <voice>2</voice>
    <type>half</type>
    <stem>down</stem>
    <notations>
     <tied type="stop"/>
     <tied type="start"/>
    </notations>
   </note>
   <backup>
    <duration>4</duration>
   </backup>
   <note>
    <pitch>
     <step>G</step>
     <octave>5</octave>
    </pitch>
    <duration>1</duration>
    <voice>1</voice>
    <type>eighth</type>
    <stem>up</stem>
    <beam number="1">begin</beam>
   </note>
   <note>
    <pitch>
     <step>E</step>
     <octave>5</octave>
    </pitch>
    <duration>1</duration>
    <voice>1</voice>
    <type>eighth</type>
    <stem>up</stem>
    <beam number="1">end</beam>
   </note>
   <note>
    <pitch>
     <step>G</step>
     <octave>5</octave>
    </pitch>
    <duration>1</duration>
    <voice>1</voice>
    <type>eighth</type>
    <stem>up</stem>
    <beam number="1">end</beam>
   </note>
   <note>
    <pitch>
     <step>F</step>
     <octave>5</octave>
    </pitch>
    <duration>1</duration>
    <voice>1</voice>
    <type>eighth</type>
    <stem>up</stem>
    <beam number="1">end</beam>
   </note>
  </measure>
  <measure number="19">
   <note>
    <pitch>
     <step>C</step>
     <octave>5</octave>
    </pitch>
    <duration>4</duration>
    <tie type="stop"/>
    <voice>2</voice>
    <type>half</type>
    <stem>down</stem>
    <notations>
     <tied type="stop"/>
    </notations>
   </note>
   <backup>
    <duration>4</duration>
   </backup>
   <note>
    <pitch>
     <step>E</step>
     <octave>5</octave>
    </pitch>
    <duration>1</duration>
    <voice>1</voice>
    <type>eighth</type>
    <stem>up</stem>
    <beam number="1">begin</beam>
   </note>
   <note>
    <pitch>
     <step>D</step>
     <octave>5</octave>
    </pitch>
    <duration>1</duration>
    <voice>1</voice>
    <type>eighth</type>
    <stem>up</stem>
    <beam number="1">end</beam>
   </note>
   <note>
    <pitch>
     <step>E</step>
     <octave>5</octave>
    </pitch>
    <duration>2</duration>
    <voice>1</voice>
    <type>quarter</type>
    <stem>up</stem>
   </note>
  </measure>
  <measure number="20">
   <note>
    <pitch>
     <step>C</step>
     <octave>5</octave>
    </pitch>
    <duration>4</duration>
    <voice>2</voice>
    <type>half</type>
    <stem>down</stem>
   </note>
   <backup>
    <duration>4</duration>
   </backup>
   <note>
    <pitch>
     <step>C</step>
     <octave>5</octave>
    </pitch>
    <duration>1</duration>
    <voice>1</voice>
    <type>eighth</type>
    <stem>up</stem>
    <beam number="1">begin</beam>
   </note>
   <note>
    <pitch>
     <step>D</step>
     <octave>5</octave>
    </pitch>
    <duration>1</duration>
    <voice>1</voice>
    <type>eighth</type>
    <stem>up</stem>
    <beam number="1">end</beam>
   </note>
   <note>
    <pitch>
     <step>E</step>
     <octave>5</octave>
    </pitch>
    <duration>1</duration>
    <voice>1</voice>
    <type>eighth</type>
    <stem>up</stem>
    <beam number="1">end</beam>
   </note>
   <note>
    <pitch>
     <step>D</step>
     <octave>5</octave>
    </pitch>
    <duration>1</duration>
    <voice>1</voice>
    <type>eighth</type>
    <stem>up</stem>
    <beam number="1">end</beam>
   </note>
  </measure>
  <measure number="21">
   <print new-system="yes"/>
   <note>
    <pitch>
     <step>C</step>
     <octave>5</octave>
    </pitch>
    <duration>2</duration>
    <voice>1</voice>
    <type>quarter</type>
    <stem>up</stem>
   </note>
   <note>
    <pitch>
     <step>C</step>
     <octave>5</octave>
    </pitch>
    <duration>2</duration>
    <voice>1</voice>
    <type>quarter</type>
    <stem>up</stem>
   </note>
  </measure>
  <measure number="22">
   <note>
    <rest/>
    <duration>4</duration>
    <voice>1</voice>
    <type>whole</type>
   </note>
  </measure>
  <measure number="23">
   <note>
    <rest/>
    <duration>4</duration>
    <voice>1</voice>
    <type>whole</type>
   </note>
  </measure>
  <measure number="24">
   <note>
    <pitch>
     <step>C</step>
     <octave>4</octave>
    </pitch>
    <duration>1</duration>
    <voice>1</voice>
    <type>eighth</type>
    <stem>up</stem>
    <beam number="1">begin</beam>
   </note>
   <note>
    <pitch>
     <step>D</step>
     <octave>4</octave>
    </pitch>
    <duration>1</duration>
    <voice>1</voice>
    <type>eighth</type>
    <stem>up</stem>
    <beam number="1">continue</beam>
   </note>
   <note>
    <pitch>
     <step>E</step>
     <octave>4</octave>
    </pitch>
    <duration>1</duration>
    <voice>1</voice>
    <type>eighth</type>
    <stem>up</stem>
    <beam number="1">continue</beam>
   </note>
   <note>
    <pitch>
     <step>F</step>
     <octave>4</octave>
    </pitch>
    <duration>1</duration>
    <voice>1</voice>
    <type>eighth</type>
    <stem>up</stem>
    <beam number="1">end</beam>
   </note>
  </measure>
  <measure number="25">
   <note>
    <pitch>
     <step>E</step>
     <octave>4</octave>
    </pitch>
    <duration>1</duration>
    <voice>1</voice>
    <type>eighth</type>
    <stem>up</stem>
    <beam number="1">begin</beam>
   </note>
   <note>
    <pitch>
     <step>D</step>
     <octave>4</octave>
    </pitch>
    <duration>1</duration>
    <voice>1</voice>
    <type>eighth</type>
    <stem>up</stem>
    <beam number="1">end</beam>
   </note>
   <note>
    <pitch>
     <step>E</step>
     <octave>4</octave>
    </pitch>
    <duration>2</duration>
    <voice>1</voice>
    <type>quarter</type>
    <stem>up</stem>
   </note>
  </measure>
  <measure number="26">
   <note>
    <pitch>
     <step>C</step>
     <octave>4</octave>
    </pitch>
    <duration>1</duration>
    <voice>1</voice>
    <type>eighth</type>
    <stem>up</stem>
    <beam number="1">begin</beam>
   </note>
   <note>
    <pitch>
     <step>D</step>
     <octave>4</octave>
    </pitch>
    <duration>1</duration>
    <voice>1</voice>
    <type>eighth</type>
    <stem>up</stem>
    <beam number="1">continue</beam>
   </note>
   <note>
    <pitch>
     <step>E</step>
     <octave>4</octave>
    </pitch>
    <duration>1</duration>
    <voice>1</voice>
    <type>eighth</type>
    <stem>up</stem>
    <beam number="1">continue</beam>
   </note>
   <note>
    <pitch>
     <step>F</step>
     <octave>4</octave>
    </pitch>
    <duration>1</duration>
    <voice>1</voice>
    <type>eighth</type>
    <stem>up</stem>
    <beam number="1">end</beam>
   </note>
  </measure>
  <measure number="27">
   <note>
    <pitch>
     <step>G</step>
     <octave>4</octave>
    </pitch>
    <duration>2</duration>
    <voice>1</voice>
    <type>quarter</type>
    <stem>up</stem>
   </note>
   <note>
    <pitch>
     <step>G</step>
     <octave>4</octave>
    </pitch>
    <duration>2</duration>
    <voice>1</voice>
    <type>quarter</type>
    <stem>up</stem>
   </note>
  </measure>
  <measure number="28">
   <print new-system="yes"/>
   <note>
    <pitch>
     <step>G</step>
     <octave>4</octave>
    </pitch>
    <duration>1</duration>
    <voice>1</voice>
    <type>eighth</type>
    <stem>up</stem>
    <beam number="1">begin</beam>
   </note>
   <note>
    <pitch>
     <step>E</step>
     <octave>4</octave>
    </pitch>
    <duration>1</duration>
    <voice>1</voice>
    <type>eighth</type>
    <stem>up</stem>
    <beam number="1">continue</beam>
   </note>
   <note>
    <pitch>
     <step>G</step>
     <octave>4</octave>
    </pitch>
    <duration>1</duration>
    <voice>1</voice>
    <type>eighth</type>
    <stem>up</stem>
    <beam number="1">continue</beam>
   </note>
   <note>
    <pitch>
     <step>F</step>
     <octave>4</octave>
    </pitch>
    <duration>1</duration>
    <voice>1</voice>
    <type>eighth</type>
    <stem>up</stem>
    <beam number="1">end</beam>
   </note>
  </measure>
  <measure number="29">
   <note>
    <pitch>
     <step>E</step>
     <octave>4</octave>
    </pitch>
    <duration>1</duration>
    <voice>1</voice>
    <type>eighth</type>
    <stem>up</stem>
    <beam number="1">begin</beam>
   </note>
   <note>
    <pitch>
     <step>D</step>
     <octave>4</octave>
    </pitch>
    <duration>1</duration>
    <voice>1</voice>
    <type>eighth</type>
    <stem>up</stem>
    <beam number="1">end</beam>
   </note>
   <note>
    <pitch>
     <step>E</step>
     <octave>4</octave>
    </pitch>
    <duration>2</duration>
    <voice>1</voice>
    <type>quarter</type>
    <stem>up</stem>
   </note>
  </measure>
  <measure number="30">
   <note>
    <pitch>
     <step>C</step>
     <octave>4</octave>
    </pitch>
    <duration>1</duration>
    <voice>1</voice>
    <type>eighth</type>
    <stem>up</stem>
    <beam number="1">begin</beam>
   </note>
   <note>
    <pitch>
     <step>D</step>
     <octave>4</octave>
    </pitch>
    <duration>1</duration>
    <voice>1</voice>
    <type>eighth</type>
    <stem>up</stem>
    <beam number="1">continue</beam>
   </note>
   <note>
    <pitch>
     <step>E</step>
     <octave>4</octave>
    </pitch>
    <duration>1</duration>
    <voice>1</voice>
    <type>eighth</type>
    <stem>up</stem>
    <beam number="1">continue</beam>
   </note>
   <note>
    <pitch>
     <step>D</step>
     <octave>4</octave>
    </pitch>
    <duration>1</duration>
    <voice>1</voice>
    <type>eighth</type>
    <stem>up</stem>
    <beam number="1">end</beam>
   </note>
  </measure>
  <measure number="31">
   <note>
    <pitch>
     <step>C</step>
     <octave>4</octave>
    </pitch>
    <duration>2</duration>
    <voice>1</voice>
    <type>quarter</type>
    <stem>up</stem>
   </note>
   <note>
    <pitch>
     <step>C</step>
     <octave>4</octave>
    </pitch>
    <duration>2</duration>
    <voice>1</voice>
    <type>quarter</type>
    <stem>up</stem>
   </note>
  </measure>
  <measure number="32">
   <note>
    <rest/>
    <duration>4</duration>
    <voice>1</voice>
    <type>whole</type>
   </note>
  </measure>
  <measure number="33">
   <note>
    <pitch>
     <step>C</step>
     <octave>4</octave>
    </pitch>
    <duration>1</duration>
    <voice>1</voice>
    <type>eighth</type>
    <stem>up</stem>
    <beam number="1">begin</beam>
   </note>
   <note>
    <pitch>
     <step>D</step>
     <octave>4</octave>
    </pitch>
    <duration>1</duration>
    <voice>1</voice>
    <type>eighth</type>
    <stem>up</stem>
    <beam number="1">continue</beam>
   </note>
   <note>
    <pitch>
     <step>E</step>
     <octave>4</octave>
    </pitch>
    <duration>1</duration>
    <voice>1</voice>
    <type>eighth</type>
    <stem>up</stem>
    <beam number="1">continue</beam>
   </note>
   <note>
    <pitch>
     <step>D</step>
     <octave>4</octave>
    </pitch>
    <duration>1</duration>
    <voice>1</voice>
    <type>eighth</type>
    <stem>up</stem>
    <beam number="1">end</beam>
   </note>
  </measure>
  <measure number="34">
   <note>
    <pitch>
     <step>C</step>
     <octave>4</octave>
    </pitch>
    <duration>2</duration>
    <voice>1</voice>
    <type>quarter</type>
    <stem>up</stem>
   </note>
   <note>
    <pitch>
     <step>C</step>
     <octave>4</octave>
    </pitch>
    <duration>2</duration>
    <voice>1</voice>
    <type>quarter</type>
    <stem>up</stem>
   </note>
   <barline location="right">
    <bar-style>light-heavy</bar-style>
   </barline>
  </measure>
 </part>
 <part id="P2">
  <measure number="1">
   <attributes>
    <divisions>2</divisions>
    <time>
     <beats>2</beats>
     <beat-type>4</beat-type>
    </time>
    <clef number="1">
     <sign>G</sign>
     <line>2</line>
    </clef>
   </attributes>
   <note>
    <rest/>
    <duration>4</duration>
    <voice>1</voice>
    <type>whole</type>
   </note>
  </measure>
  <measure number="2">
   <note>
    <rest/>
    <duration>4</duration>
    <voice>1</voice>
    <type>whole</type>
   </note>
  </measure>
  <measure number="3">
   <note>
    <rest/>
    <duration>4</duration>
    <voice>1</voice>
    <type>whole</type>
   </note>
  </measure>
  <measure number="4">
   <note>
    <rest/>
    <duration>4</duration>
    <voice>1</voice>
    <type>whole</type>
   </note>
  </measure>
  <measure number="5">
   <note>
    <pitch>
     <step>C</step>
     <octave>4</octave>
    </pitch>
    <duration>1</duration>
    <voice>1</voice>
    <type>eighth</type>
    <stem>up</stem>
    <beam number="1">begin</beam>
   </note>
   <note>
    <pitch>
     <step>D</step>
     <octave>4</octave>
    </pitch>
    <duration>1</duration>
    <voice>1</voice>
    <type>eighth</type>
    <stem>up</stem>
    <beam number="1">continue</beam>
   </note>
   <note>
    <pitch>
     <step>E</step>
     <octave>4</octave>
    </pitch>
    <duration>1</duration>
    <voice>1</voice>
    <type>eighth</type>
    <stem>up</stem>
    <beam number="1">continue</beam>
   </note>
   <note>
    <pitch>
     <step>F</step>
     <octave>4</octave>
    </pitch>
    <duration>1</duration>
    <voice>1</voice>
    <type>eighth</type>
    <stem>up</stem>
    <beam number="1">end</beam>
   </note>
  </measure>
  <measure number="6">
   <note>
    <pitch>
     <step>E</step>
     <octave>4</octave>
    </pitch>
    <duration>1</duration>
    <voice>1</voice>
    <type>eighth</type>
    <stem>up</stem>
    <beam number="1">begin</beam>
   </note>
   <note>
    <pitch>
     <step>D</step>
     <octave>4</octave>
    </pitch>
    <duration>1</duration>
    <voice>1</voice>
    <type>eighth</type>
    <stem>up</stem>
    <beam number="1">end</beam>
   </note>
   <note>
    <pitch>
     <step>E</step>
     <octave>4</octave>
    </pitch>
    <duration>2</duration>
    <voice>1</voice>
    <type>quarter</type>
    <stem>up</stem>
   </note>
  </measure>
  <measure number="7">
   <print new-system="yes"/>
   <note>
    <pitch>
     <step>C</step>
     <octave>4</octave>
    </pitch>
    <duration>1</duration>
    <voice>1</voice>
    <type>eighth</type>
    <stem>up</stem>
    <beam number="1">begin</beam>
   </note>
   <note>
    <pitch>
     <step>D</step>
     <octave>4</octave>
    </pitch>
    <duration>1</duration>
    <voice>1</voice>
    <type>eighth</type>
    <stem>up</stem>
    <beam number="1">continue</beam>
   </note>
   <note>
    <pitch>
     <step>E</step>
     <octave>4</octave>
    </pitch>
    <duration>1</duration>
    <voice>1</voice>
    <type>eighth</type>
    <stem>up</stem>
    <beam number="1">continue</beam>
   </note>
   <note>
    <pitch>
     <step>F</step>
     <octave>4</octave>
    </pitch>
    <duration>1</duration>
    <voice>1</voice>
    <type>eighth</type>
    <stem>up</stem>
    <beam number="1">end</beam>
   </note>
  </measure>
  <measure number="8">
   <note>
    <pitch>
     <step>G</step>
     <octave>4</octave>
    </pitch>
    <duration>2</duration>
    <voice>1</voice>
    <type>quarter</type>
    <stem>up</stem>
   </note>
   <note>
    <pitch>
     <step>G</step>
     <octave>4</octave>
    </pitch>
    <duration>2</duration>
    <voice>1</voice>
    <type>quarter</type>
    <stem>up</stem>
   </note>
  </measure>
  <measure number="9">
   <note>
    <pitch>
     <step>G</step>
     <octave>4</octave>
    </pitch>
    <duration>1</duration>
    <voice>1</voice>
    <type>eighth</type>
    <stem>up</stem>
    <beam number="1">begin</beam>
   </note>
   <note>
    <pitch>
     <step>E</step>
     <octave>4</octave>
    </pitch>
    <duration>1</duration>
    <voice>1</voice>
    <type>eighth</type>
    <stem>up</stem>
    <beam number="1">continue</beam>
   </note>
   <note>
    <pitch>
     <step>G</step>
     <octave>4</octave>
    </pitch>
    <duration>1</duration>
    <voice>1</voice>
    <type>eighth</type>
    <stem>up</stem>
    <beam number="1">continue</beam>
   </note>
   <note>
    <pitch>
     <step>F</step>
     <octave>4</octave>
    </pitch>
    <duration>1</duration>
    <voice>1</voice>
    <type>eighth</type>
    <stem>up</stem>
    <beam number="1">end</beam>
   </note>
  </measure>
  <measure number="10">
   <note>
    <pitch>
     <step>E</step>
     <octave>4</octave>
    </pitch>
    <duration>1</duration>
    <voice>1</voice>
    <type>eighth</type>
    <stem>up</stem>
    <beam number="1">begin</beam>
   </note>
   <note>
    <pitch>
     <step>D</step>
     <octave>4</octave>
    </pitch>
    <duration>1</duration>
    <voice>1</voice>
    <type>eighth</type>
    <stem>up</stem>
    <beam number="1">end</beam>
   </note>
   <note>
    <pitch>
     <step>E</step>
     <octave>4</octave>
    </pitch>
    <duration>2</duration>
    <voice>1</voice>
    <type>quarter</type>
    <stem>up</stem>
   </note>
  </measure>
  <measure number="11">
   <note>
    <pitch>
     <step>C</step>
     <octave>4</octave>
    </pitch>
    <duration>1</duration>
    <voice>1</voice>
    <type>eighth</type>
    <stem>up</stem>
    <beam number="1">begin</beam>
   </note>
   <note>
    <pitch>
     <step>D</step>
     <octave>4</octave>
    </pitch>
    <duration>1</duration>
    <voice>1</voice>
    <type>eighth</type>
    <stem>up</stem>
    <beam number="1">continue</beam>
   </note>
   <note>
    <pitch>
     <step>E</step>
     <octave>4</octave>
    </pitch>
    <duration>1</duration>
    <voice>1</voice>
    <type>eighth</type>
    <stem>up</stem>
    <beam number="1">continue</beam>
   </note>
   <note>
    <pitch>
     <step>D</step>
     <octave>4</octave>
    </pitch>
    <duration>1</duration>
    <voice>1</voice>
    <type>eighth</type>
    <stem>up</stem>
    <beam number="1">end</beam>
   </note>
  </measure>
  <measure number="12">
   <note>
    <pitch>
     <step>C</step>
     <octave>4</octave>
    </pitch>
    <duration>2</duration>
    <voice>1</voice>
    <type>quarter</type>
    <stem>up</stem>
   </note>
   <note>
    <pitch>
     <step>C</step>
     <octave>4</octave>
    </pitch>
    <duration>2</duration>
    <voice>1</voice>
    <type>quarter</type>
    <stem>up</stem>
   </note>
   <attributes>
    <clef number="1">
     <sign>F</sign>
     <line>4</line>
    </clef>
   </attributes>
  </measure>
  <measure number="13">
   <note>
    <rest/>
    <duration>1</duration>
    <voice>1</voice>
    <type>eighth</type>
   </note>
   <note>
    <pitch>
     <step>E</step>
     <octave>3</octave>
    </pitch>
    <duration>1</duration>
    <voice>1</voice>
    <type>eighth</type>
    <stem>down</stem>
    <beam number="1">begin</beam>
   </note>
   <note>
    <pitch>
     <step>C</step>
     <octave>3</octave>
    </pitch>
    <duration>1</duration>
    <voice>1</voice>
    <type>eighth</type>
    <stem>down</stem>
    <beam number="1">continue</beam>
   </note>
   <note>
    <pitch>
     <step>D</step>
     <octave>3</octave>
    </pitch>
    <duration>1</duration>
    <voice>1</voice>
    <type>eighth</type>
    <stem>down</stem>
    <beam number="1">end</beam>
   </note>
  </measure>
  <measure number="14">
   <print new-system="yes"/>
   <note>
    <pitch>
     <step>A</step>
     <octave>2</octave>
    </pitch>
    <duration>2</duration>
    <voice>1</voice>
    <type>quarter</type>
    <stem>up</stem>
   </note>
   <note>
    <rest/>
    <duration>2</duration>
    <voice>1</voice>
    <type>quarter</type>
   </note>
  </measure>
  <measure number="15">
   <note>
    <pitch>
     <step>A</step>
     <octave>3</octave>
    </pitch>
    <duration>4</duration>
    <voice>2</voice>
    <type>half</type>
    <stem>down</stem>
   </note>
   <backup>
    <duration>4</duration>
   </backup>
   <note>
    <pitch>
     <step>A</step>
     <octave>3</octave>
    </pitch>
    <duration>1</duration>
    <voice>1</voice>
    <type>eighth</type>
    <stem>up</stem>
    <beam number="1">begin</beam>
   </note>
   <note>
    <pitch>
     <step>B</step>
     <octave>3</octave>
    </pitch>
    <duration>1</duration>
    <voice>1</voice>
    <type>eighth</type>
    <stem>up</stem>
    <beam number="1">end</beam>
   </note>
   <note>
    <pitch>
     <step>C</step>
     <octave>4</octave>
    </pitch>
    <duration>1</duration>
    <voice>1</voice>
    <type>eighth</type>
    <stem>up</stem>
    <beam number="1">end</beam>
   </note>
   <note>
    <pitch>
     <step>D</step>
     <octave>4</octave>
    </pitch>
    <duration>1</duration>
    <voice>1</voice>
    <type>eighth</type>
    <stem>up</stem>
    <beam number="1">end</beam>
   </note>
  </measure>
  <measure number="16">
   <note>
    <pitch>
     <step>A</step>
     <octave>3</octave>
    </pitch>
    <duration>2</duration>
    <voice>2</voice>
    <type>quarter</type>
    <stem>down</stem>
   </note>
   <backup>
    <duration>2</duration>
   </backup>
   <note>
    <pitch>
     <step>E</step>
     <octave>4</octave>
    </pitch>
    <duration>2</duration>
    <voice>1</voice>
    <type>quarter</type>
    <stem>up</stem>
   </note>
   <note>
    <rest/>
    <duration>2</duration>
    <voice>1</voice>
    <type>quarter</type>
   </note>
   <backup>
    <duration>2</duration>
   </backup>
   <note>
    <rest/>
    <duration>2</duration>
    <voice>2</voice>
    <type>quarter</type>
   </note>
  </measure>
  <measure number="17">
   <note>
    <pitch>
     <step>E</step>
     <octave>3</octave>
    </pitch>
    <duration>1</duration>
    <voice>2</voice>
    <type>eighth</type>
    <stem>down</stem>
    <beam number="1">begin</beam>
   </note>
   <backup>
    <duration>1</duration>
   </backup>
   <note>
    <pitch>
     <step>E</step>
     <octave>3</octave>
    </pitch>
    <duration>4</duration>
    <tie type="start"/>
    <voice>1</voice>
    <type>half</type>
    <stem>up</stem>
    <notations>
     <tied type="start"/>
    </notations>
   </note>
   <backup>
    <duration>3</duration>
   </backup>
   <note>
    <pitch>
     <step>D</step>
     <octave>3</octave>
    </pitch>
    <duration>1</duration>
    <voice>2</voice>
    <type>eighth</type>
    <stem>down</stem>
    <beam number="1">end</beam>
   </note>
   <note>
    <pitch>
     <step>C</step>
     <octave>3</octave>
    </pitch>
    <duration>1</duration>
    <voice>2</voice>
    <type>eighth</type>
    <stem>down</stem>
    <beam number="1">begin</beam>
   </note>
   <note>
    <pitch>
     <step>B</step>
     <octave>2</octave>
    </pitch>
    <duration>1</duration>
    <voice>2</voice>
    <type>eighth</type>
    <stem>down</stem>
    <beam number="1">end</beam>
   </note>
  </measure>
  <measure number="18">
   <note>
    <pitch>
     <step>A</step>
     <octave>2</octave>
    </pitch>
    <duration>2</duration>
    <voice>2</voice>
    <type>quarter</type>
    <stem>down</stem>
   </note>
   <backup>
    <duration>2</duration>
   </backup>
   <note>
    <pitch>
     <step>E</step>
     <octave>3</octave>
    </pitch>
    <duration>2</duration>
    <tie type="stop"/>
    <voice>1</voice>
    <type>quarter</type>
    <stem>up</stem>
    <notations>
     <tied type="stop"/>
    </notations>
   </note>
   <note>
    <rest/>
    <duration>2</duration>
    <voice>1</voice>
    <type>quarter</type>
   </note>
   <backup>
    <duration>2</duration>
   </backup>
   <note>
    <rest/>
    <duration>2</duration>
    <voice>2</voice>
    <type>quarter</type>
   </note>
  </measure>
  <measure number="19">
   <note>
    <pitch>
     <step>A</step>
     <octave>3</octave>
    </pitch>
    <duration>4</duration>
    <tie type="start"/>
    <voice>2</voice>
    <type>half</type>
    <stem>down</stem>
    <notations>
     <tied type="start"/>
    </notations>
   </note>
   <backup>
    <duration>4</duration>
   </backup>
   <note>
    <pitch>
     <step>A</step>
     <octave>3</octave>
    </pitch>
    <duration>1</duration>
    <voice>1</voice>
    <type>eighth</type>
    <stem>up</stem>
    <beam number="1">begin</beam>
   </note>
   <note>
    <pitch>
     <step>B</step>
     <octave>3</octave>
    </pitch>
    <duration>1</duration>
    <voice>1</voice>
    <type>eighth</type>
    <stem>up</stem>
    <beam number="1">end</beam>
   </note>
   <note>
    <pitch>
     <step>C</step>
     <octave>4</octave>
    </pitch>
    <duration>1</duration>
    <voice>1</voice>
    <type>eighth</type>
    <stem>up</stem>
    <beam number="1">end</beam>
   </note>
   <note>
    <pitch>
     <step>D</step>
     <octave>4</octave>
    </pitch>
    <duration>1</duration>
    <voice>1</voice>
    <type>eighth</type>
    <stem>up</stem>
    <beam number="1">end</beam>
   </note>
  </measure>
  <measure number="20">
   <note>
    <pitch>
     <step>A</step>
     <octave>3</octave>
    </pitch>
    <duration>2</duration>
    <tie type="stop"/>
    <voice>2</voice>
    <type>quarter</type>
    <stem>down</stem>
    <notations>
     <tied type="stop"/>
    </notations>
   </note>
   <backup>
    <duration>2</duration>
   </backup>
   <note>
    <pitch>
     <step>E</step>
     <octave>4</octave>
    </pitch>
    <duration>2</duration>
    <voice>1</voice>
    <type>quarter</type>
    <stem>up</stem>
   </note>
   <note>
    <rest/>
    <duration>2</duration>
    <voice>1</voice>
    <type>quarter</type>
   </note>
   <backup>
    <duration>2</duration>
   </backup>
   <note>
    <rest/>
    <duration>2</duration>
    <voice>2</voice>
    <type>quarter</type>
   </note>
  </measure>
  <measure number="21">
   <print new-system="yes"/>
   <note>
    <pitch>
     <step>E</step>
     <octave>3</octave>
    </pitch>
    <duration>1</duration>
    <voice>2</voice>
    <type>eighth</type>
    <stem>down</stem>
    <beam number="1">begin</beam>
   </note>
   <backup>
    <duration>1</duration>
   </backup>
   <note>
    <pitch>
     <step>E</step>
     <octave>3</octave>
    </pitch>
    <duration>4</duration>
    <voice>1</voice>
    <type>half</type>
    <stem>up</stem>
   </note>
   <backup>
    <duration>3</duration>
   </backup>
   <note>
    <pitch>
     <step>D</step>
     <octave>3</octave>
    </pitch>
    <duration>1</duration>
    <voice>2</voice>
    <type>eighth</type>
    <stem>down</stem>
    <beam number="1">end</beam>
   </note>
   <note>
    <pitch>
     <step>C</step>
     <octave>3</octave>
    </pitch>
    <duration>1</duration>
    <voice>2</voice>
    <type>eighth</type>
    <stem>down</stem>
    <beam number="1">end</beam>
   </note>
   <note>
    <pitch>
     <step>B</step>
     <octave>2</octave>
    </pitch>
    <duration>1</duration>
    <voice>2</voice>
    <type>eighth</type>
    <stem>down</stem>
    <beam number="1">end</beam>
   </note>
  </measure>
  <measure number="22">
   <note>
    <pitch>
     <step>B</step>
     <alter>-1</alter>
     <octave>2</octave>
    </pitch>
    <duration>1</duration>
    <voice>2</voice>
    <type>eighth</type>
    <accidental>flat</accidental>
    <stem>down</stem>
   </note>
   <backup>
    <duration>1</duration>
   </backup>
   <note>
    <pitch>
     <step>E</step>
     <octave>3</octave>
    </pitch>
    <duration>1</duration>
    <voice>1</voice>
    <type>eighth</type>
    <stem>up</stem>
   </note>
   <note>
    <rest/>
    <duration>1</duration>
    <voice>1</voice>
    <type>eighth</type>
   </note>
   <note>
    <pitch>
     <step>B</step>
     <alter>-1</alter>
     <octave>2</octave>
    </pitch>
    <duration>2</duration>
    <tie type="start"/>
    <voice>2</voice>
    <type>quarter</type>
    <stem>down</stem>
    <notations>
     <tied type="start"/>
    </notations>
   </note>
   <backup>
    <duration>2</duration>
   </backup>
   <note>
    <pitch>
     <step>C</step>
     <octave>3</octave>
    </pitch>
    <duration>2</duration>
    <voice>1</voice>
    <type>quarter</type>
    <stem>up</stem>
   </note>
  </measure>
  <measure number="23">
   <note>
    <pitch>
     <step>B</step>
     <alter>-1</alter>
     <octave>2</octave>
    </pitch>
    <duration>2</duration>
    <tie type="stop"/>
    <voice>2</voice>
    <type>quarter</type>
    <stem>down</stem>
    <notations>
     <tied type="stop"/>
    </notations>
   </note>
   <backup>
    <duration>2</duration>
   </backup>
   <note>
    <pitch>
     <step>C</step>
     <octave>3</octave>
    </pitch>
    <duration>2</duration>
    <voice>1</voice>
    <type>quarter</type>
    <stem>up</stem>
   </note>
   <note>
    <pitch>
     <step>B</step>
     <octave>2</octave>
    </pitch>
    <duration>2</duration>
    <voice>2</voice>
    <type>quarter</type>
    <stem>up</stem>
   </note>
   <backup>
    <duration>2</duration>
   </backup>
   <note>
    <pitch>
     <step>C</step>
     <octave>3</octave>
    </pitch>
    <duration>2</duration>
    <voice>1</voice>
    <type>quarter</type>
    <stem>up</stem>
   </note>
  </measure>
  <measure number="24">
   <note>
    <pitch>
     <step>B</step>
     <octave>2</octave>
    </pitch>
    <duration>4</duration>
    <tie type="start"/>
    <voice>2</voice>
    <type>half</type>
    <stem>down</stem>
    <notations>
     <tied type="start"/>
    </notations>
   </note>
   <backup>
    <duration>4</duration>
   </backup>
   <note>
    <pitch>
     <step>C</step>
     <octave>3</octave>
    </pitch>
    <duration>4</duration>
    <tie type="start"/>
    <voice>1</voice>
    <type>half</type>
    <stem>up</stem>
    <notations>
     <tied type="start"/>
    </notations>
   </note>
  </measure>
  <measure number="25">
   <note>
    <pitch>
     <step>B</step>
     <octave>2</octave>
    </pitch>
    <duration>1</duration>
    <tie type="stop"/>
    <voice>2</voice>
    <type>eighth</type>
    <stem>down</stem>
    <beam number="1">begin</beam>
    <notations>
     <tied type="stop"/>
    </notations>
   </note>
   <backup>
    <duration>1</duration>
   </backup>
   <note>
    <pitch>
     <step>C</step>
     <octave>3</octave>
    </pitch>
    <duration>4</duration>
    <tie type="stop"/>
    <tie type="start"/>
    <voice>1</voice>
    <type>half</type>
    <stem>up</stem>
    <notations>
     <tied type="stop"/>
     <tied type="start"/>
    </notations>
   </note>
   <backup>
    <duration>3</duration>
   </backup>
   <note>
    <pitch>
     <step>F</step>
     <alter>1</alter>
     <octave>2</octave>
    </pitch>
    <duration>1</duration>
    <voice>2</voice>
    <type>eighth</type>
    <accidental>sharp</accidental>
    <stem>down</stem>
    <beam number="1">end</beam>
   </note>
   <note>
    <pitch>
     <step>G</step>
     <octave>2</octave>
    </pitch>
    <duration>1</duration>
    <voice>2</voice>
    <type>eighth</type>
    <stem>down</stem>
    <beam number="1">end</beam>
   </note>
   <note>
    <pitch>
     <step>A</step>
     <octave>2</octave>
    </pitch>
    <duration>1</duration>
    <voice>2</voice>
    <type>eighth</type>
    <stem>down</stem>
    <beam number="1">end</beam>
   </note>
  </measure>
  <measure number="26">
   <note>
    <pitch>
     <step>B</step>
     <alter>-1</alter>
     <octave>2</octave>
    </pitch>
    <duration>4</duration>
    <tie type="start"/>
    <voice>2</voice>
    <type>half</type>
    <accidental>flat</accidental>
    <stem>down</stem>
    <notations>
     <tied type="start"/>
    </notations>
   </note>
   <backup>
    <duration>4</duration>
   </backup>
   <note>
    <pitch>
     <step>C</step>
     <octave>3</octave>
    </pitch>
    <duration>4</duration>
    <tie type="stop"/>
    <tie type="start"/>
    <voice>1</voice>
    <type>half</type>
    <stem>up</stem>
    <notations>
     <tied type="stop"/>
     <tied type="start"/>
    </notations>
   </note>
  </measure>
  <measure number="27">
   <note>
    <pitch>
     <step>B</step>
     <alter>-1</alter>
     <octave>2</octave>
    </pitch>
    <duration>1</duration>
    <tie type="stop"/>
    <voice>2</voice>
    <type>eighth</type>
    <stem>down</stem>
    <beam number="1">begin</beam>
    <notations>
     <tied type="stop"/>
    </notations>
   </note>
   <backup>
    <duration>1</duration>
   </backup>
   <note>
    <pitch>
     <step>C</step>
     <octave>3</octave>
    </pitch>
    <duration>4</duration>
    <tie type="stop"/>
    <tie type="start"/>
    <voice>1</voice>
    <type>half</type>
    <stem>up</stem>
    <notations>
     <tied type="stop"/>
     <tied type="start"/>
    </notations>
   </note>
   <backup>
    <duration>3</duration>
   </backup>
   <note>
    <pitch>
     <step>F</step>
     <alter>1</alter>
     <octave>2</octave>
    </pitch>
    <duration>1</duration>
    <voice>2</voice>
    <type>eighth</type>
    <accidental>sharp</accidental>
    <stem>down</stem>
    <beam number="1">end</beam>
   </note>
   <note>
    <pitch>
     <step>G</step>
     <octave>2</octave>
    </pitch>
    <duration>1</duration>
    <voice>2</voice>
    <type>eighth</type>
    <stem>down</stem>
    <beam number="1">end</beam>
   </note>
   <note>
    <pitch>
     <step>A</step>
     <octave>2</octave>
    </pitch>
    <duration>1</duration>
    <voice>2</voice>
    <type>eighth</type>
    <stem>down</stem>
    <beam number="1">end</beam>
   </note>
  </measure>
  <measure number="28">
   <print new-system="yes"/>
   <note>
    <pitch>
     <step>B</step>
     <octave>2</octave>
    </pitch>
    <duration>4</duration>
    <voice>2</voice>
    <type>half</type>
    <stem>down</stem>
   </note>
   <backup>
    <duration>4</duration>
   </backup>
   <note>
    <pitch>
     <step>C</step>
     <octave>3</octave>
    </pitch>
    <duration>4</duration>
    <tie type="stop"/>
    <voice>1</voice>
    <type>half</type>
    <stem>up</stem>
    <notations>
     <tied type="stop"/>
    </notations>
   </note>
  </measure>
  <measure number="29">
   <note>
    <pitch>
     <step>B</step>
     <octave>2</octave>
    </pitch>
    <duration>1</duration>
    <voice>2</voice>
    <type>eighth</type>
    <stem>down</stem>
    <beam number="1">begin</beam>
   </note>
   <backup>
    <duration>1</duration>
   </backup>
   <note>
    <pitch>
     <step>C</step>
     <octave>3</octave>
    </pitch>
    <duration>4</duration>
    <tie type="start"/>
    <voice>1</voice>
    <type>half</type>
    <stem>up</stem>
    <notations>
     <tied type="start"/>
    </notations>
   </note>
   <backup>
    <duration>3</duration>
   </backup>
   <note>
    <pitch>
     <step>F</step>
     <alter>1</alter>
     <octave>2</octave>
    </pitch>
    <duration>1</duration>
    <voice>2</voice>
    <type>eighth</type>
    <accidental>sharp</accidental>
    <stem>down</stem>
    <beam number="1">end</beam>
   </note>
   <note>
    <pitch>
     <step>G</step>
     <octave>2</octave>
    </pitch>
    <duration>1</duration>
    <voice>2</voice>
    <type>eighth</type>
    <stem>down</stem>
    <beam number="1">end</beam>
   </note>
   <note>
    <pitch>
     <step>A</step>
     <octave>2</octave>
    </pitch>
    <duration>1</duration>
    <voice>2</voice>
    <type>eighth</type>
    <stem>down</stem>
    <beam number="1">end</beam>
   </note>
  </measure>
  <measure number="30">
   <note>
    <pitch>
     <step>B</step>
     <alter>-1</alter>
     <octave>2</octave>
    </pitch>
    <duration>4</duration>
    <tie type="start"/>
    <voice>2</voice>
    <type>half</type>
    <accidental>flat</accidental>
    <stem>down</stem>
    <notations>
     <tied type="start"/>
    </notations>
   </note>
   <backup>
    <duration>4</duration>
   </backup>
   <note>
    <pitch>
     <step>C</step>
     <octave>3</octave>
    </pitch>
    <duration>4</duration>
    <tie type="stop"/>
    <voice>1</voice>
    <type>half</type>
    <stem>up</stem>
    <notations>
     <tied type="stop"/>
    </notations>
   </note>
  </measure>
  <measure number="31">
   <note>
    <pitch>
     <step>B</step>
     <alter>-1</alter>
     <octave>2</octave>
    </pitch>
    <duration>1</duration>
    <tie type="stop"/>
    <voice>2</voice>
    <type>eighth</type>
    <stem>down</stem>
    <beam number="1">begin</beam>
    <notations>
     <tied type="stop"/>
    </notations>
   </note>
   <backup>
    <duration>1</duration>
   </backup>
   <note>
    <pitch>
     <step>C</step>
     <octave>3</octave>
    </pitch>
    <duration>4</duration>
    <tie type="start"/>
    <voice>1</voice>
    <type>half</type>
    <stem>up</stem>
    <notations>
     <tied type="start"/>
    </notations>
   </note>
   <backup>
    <duration>3</duration>
   </backup>
   <note>
    <pitch>
     <step>F</step>
     <alter>1</alter>
     <octave>2</octave>
    </pitch>
    <duration>1</duration>
    <voice>2</voice>
    <type>eighth</type>
    <accidental>sharp</accidental>
    <stem>down</stem>
    <beam number="1">end</beam>
   </note>
   <note>
    <pitch>
     <step>G</step>
     <octave>2</octave>
    </pitch>
    <duration>1</duration>
    <voice>2</voice>
    <type>eighth</type>
    <stem>down</stem>
    <beam number="1">end</beam>
   </note>
   <note>
    <pitch>
     <step>A</step>
     <octave>2</octave>
    </pitch>
    <duration>1</duration>
    <voice>2</voice>
    <type>eighth</type>
    <stem>down</stem>
    <beam number="1">end</beam>
   </note>
  </measure>
  <measure number="32">
   <note>
    <pitch>
     <step>B</step>
     <alter>-1</alter>
     <octave>2</octave>
    </pitch>
    <duration>2</duration>
    <voice>2</voice>
    <type>quarter</type>
    <accidental>flat</accidental>
    <stem>down</stem>
   </note>
   <backup>
    <duration>2</duration>
   </backup>
   <note>
    <pitch>
     <step>C</step>
     <octave>3</octave>
    </pitch>
    <duration>4</duration>
    <tie type="stop"/>
    <tie type="start"/>
    <voice>1</voice>
    <type>half</type>
    <stem>up</stem>
    <notations>
     <tied type="stop"/>
     <tied type="start"/>
    </notations>
   </note>
   <backup>
    <duration>2</duration>
   </backup>
   <note>
    <pitch>
     <step>F</step>
     <alter>1</alter>
     <octave>2</octave>
    </pitch>
    <duration>2</duration>
    <tie type="start"/>
    <voice>2</voice>
    <type>quarter</type>
    <accidental>sharp</accidental>
    <stem>down</stem>
    <notations>
     <tied type="start"/>
    </notations>
   </note>
  </measure>
  <measure number="33">
   <note>
    <pitch>
     <step>F</step>
     <alter>1</alter>
     <octave>2</octave>
    </pitch>
    <duration>1</duration>
    <tie type="stop"/>
    <voice>2</voice>
    <type>eighth</type>
    <stem>down</stem>
    <notations>
     <tied type="stop"/>
    </notations>
   </note>
   <backup>
    <duration>1</duration>
   </backup>
   <note>
    <pitch>
     <step>C</step>
     <octave>3</octave>
    </pitch>
    <duration>1</duration>
    <tie type="stop"/>
    <voice>1</voice>
    <type>eighth</type>
    <stem>up</stem>
    <notations>
     <tied type="stop"/>
    </notations>
   </note>
   <note>
    <rest/>
    <duration>1</duration>
    <voice>1</voice>
    <type>eighth</type>
   </note>
   <backup>
    <duration>1</duration>
   </backup>
   <note>
    <rest/>
    <duration>1</duration>
    <voice>2</voice>
    <type>eighth</type>
   </note>
   <note>
    <pitch>
     <step>G</step>
     <octave>2</octave>
    </pitch>
    <duration>2</duration>
    <voice>2</voice>
    <type>quarter</type>
    <stem>down</stem>
   </note>
   <backup>
    <duration>2</duration>
   </backup>
   <note>
    <pitch>
     <step>B</step>
     <octave>2</octave>
    </pitch>
    <duration>2</duration>
    <voice>1</voice>
    <type>quarter</type>
    <accidental>natural</accidental>
    <stem>up</stem>
   </note>
  </measure>
  <measure number="34">
   <note>
    <pitch>
     <step>C</step>
     <octave>3</octave>
    </pitch>
    <duration>2</duration>
    <voice>2</voice>
    <type>quarter</type>
    <stem>down</stem>
   </note>
   <backup>
    <duration>2</duration>
   </backup>
   <note>
    <pitch>
     <step>C</step>
     <octave>3</octave>
    </pitch>
    <duration>2</duration>
    <voice>1</voice>
    <type>quarter</type>
    <stem>up</stem>
   </note>
   <note>
    <pitch>
     <step>C</step>
     <octave>3</octave>
    </pitch>
    <duration>2</duration>
    <voice>2</voice>
    <type>quarter</type>
    <stem>down</stem>
   </note>
   <backup>
    <duration>2</duration>
   </backup>
   <note>
    <pitch>
     <step>C</step>
     <octave>3</octave>
    </pitch>
    <duration>2</duration>
    <voice>1</voice>
    <type>quarter</type>
    <stem>up</stem>
   </note>
   <barline location="right">
    <bar-style>light-heavy</bar-style>
   </barline>
  </measure>
 </part>
</score-partwise>
